<svg width="55" height="55" viewBox="0 0 55 55" fill="none" xmlns="http://www.w3.org/2000/svg">
<path d="M27.5 0C12.3122 0 0 12.3122 0 27.5C0 42.6878 12.3122 55 27.5 55C42.6878 55 55 42.6878 55 27.5C55 12.3122 42.6878 0 27.5 0ZM45.968 17.6296L22.1885 41.4091C20.7065 42.8912 18.3037 42.8911 16.8216 41.4091L9.03197 33.6194C7.85379 32.4413 7.85379 30.531 9.03197 29.3528C10.2102 28.1747 12.1204 28.1747 13.2986 29.3529L18.8597 34.914C19.2161 35.2705 19.794 35.2704 20.1504 34.914L41.7014 13.363C42.8796 12.1849 44.7898 12.1849 45.968 13.3631C47.1462 14.5412 47.1462 16.4514 45.968 17.6296Z" fill="#65B448"/>
</svg>
