<svg width="24" height="24" viewBox="0 0 24 24" fill="none" xmlns="http://www.w3.org/2000/svg">
<g clip-path="url(#clip0_1_4922)">
<path d="M11.8772 21.4259C17.4276 21.4259 21.927 17.0292 21.927 11.6057C21.927 6.18217 17.4276 1.78552 11.8772 1.78552C6.32676 1.78552 1.82727 6.18217 1.82727 11.6057C1.82727 17.0292 6.32676 21.4259 11.8772 21.4259Z" fill="#65B448"/>
<path d="M11.138 15.7891C11.0895 15.8367 11.0318 15.8744 10.9683 15.9002C10.9048 15.9259 10.8368 15.9392 10.768 15.9392C10.6993 15.9392 10.6312 15.9259 10.5677 15.9002C10.5042 15.8744 10.4465 15.8367 10.398 15.7891L7.43967 12.902C7.36677 12.8308 7.30894 12.7462 7.26948 12.6532C7.23002 12.5601 7.20972 12.4604 7.20972 12.3596C7.20972 12.2589 7.23002 12.1592 7.26948 12.0661C7.30894 11.9731 7.36677 11.8885 7.43967 11.8173L7.80512 11.4557C7.878 11.3845 7.96452 11.328 8.05976 11.2894C8.15499 11.2509 8.25706 11.231 8.36015 11.231C8.46323 11.231 8.5653 11.2509 8.66053 11.2894C8.75577 11.328 8.84229 11.3845 8.91517 11.4557L10.7634 13.2582L15.7482 8.38827C15.8211 8.31703 15.9076 8.26053 16.0028 8.22197C16.0981 8.18342 16.2001 8.16357 16.3032 8.16357C16.4063 8.16357 16.5084 8.18342 16.6036 8.22197C16.6988 8.26053 16.7854 8.31703 16.8582 8.38827L17.2237 8.74983C17.2966 8.82104 17.3544 8.90559 17.3939 8.99865C17.4333 9.09171 17.4536 9.19145 17.4536 9.29217C17.4536 9.3929 17.4333 9.49264 17.3939 9.58569C17.3544 9.67875 17.2966 9.7633 17.2237 9.83451L11.138 15.7891Z" fill="white"/>
</g>
<defs>
<clipPath id="clip0_1_4922">
<rect width="23.7543" height="23.2113" fill="white"/>
</clipPath>
</defs>
</svg>
