<svg width="28" height="28" viewBox="0 0 28 28" fill="none" xmlns="http://www.w3.org/2000/svg">
<path d="M15.4845 14.4986L19.588 10.396C20.1373 9.84673 20.1373 8.9612 19.588 8.41194C19.0386 7.86269 18.1529 7.86269 17.6035 8.41194L13.5 12.5146L9.39651 8.41194C8.84713 7.86269 7.96141 7.86269 7.41203 8.41194C6.86266 8.9612 6.86266 9.84673 7.41203 10.396L11.5155 14.4986L7.41203 18.6012C6.86266 19.1505 6.86266 20.036 7.41203 20.5853C7.68111 20.8543 8.03989 21 8.39866 21C8.75744 21 9.11621 20.8655 9.3853 20.5853L13.4888 16.4826L17.5923 20.5853C17.8614 20.8543 18.2201 21 18.5789 21C18.9377 21 19.2965 20.8655 19.5655 20.5853C20.1149 20.036 20.1149 19.1505 19.5655 18.6012L15.4621 14.4986H15.4845Z" fill="currentColor"/>
</svg>
