<svg width="23" height="23" viewBox="0 0 23 23" fill="none" xmlns="http://www.w3.org/2000/svg">
<path d="M19.7036 6.46876L16.5313 3.29637C16.3983 3.16231 16.2399 3.05602 16.0655 2.98368C15.891 2.91134 15.704 2.8744 15.5151 2.87501H4.3125C3.93125 2.87501 3.56562 3.02646 3.29603 3.29604C3.02645 3.56562 2.875 3.93126 2.875 4.31251V18.6875C2.875 19.0688 3.02645 19.4344 3.29603 19.704C3.56562 19.9736 3.93125 20.125 4.3125 20.125H18.6875C19.0688 20.125 19.4344 19.9736 19.704 19.704C19.9736 19.4344 20.125 19.0688 20.125 18.6875V7.48489C20.1256 7.29605 20.0887 7.10896 20.0163 6.93452C19.944 6.76008 19.8377 6.60176 19.7036 6.46876ZM15.0938 18.6875H7.90625V13.6563H15.0938V18.6875ZM18.6875 18.6875H16.5313V13.6563C16.5313 13.275 16.3798 12.9094 16.1102 12.6398C15.8406 12.3702 15.475 12.2188 15.0938 12.2188H7.90625C7.525 12.2188 7.15937 12.3702 6.88978 12.6398C6.6202 12.9094 6.46875 13.275 6.46875 13.6563V18.6875H4.3125V4.31251H15.5151L18.6875 7.48489V18.6875ZM14.375 6.46876C14.375 6.65938 14.2993 6.8422 14.1645 6.97699C14.0297 7.11178 13.8469 7.18751 13.6563 7.18751H8.625C8.43438 7.18751 8.25156 7.11178 8.11677 6.97699C7.98198 6.8422 7.90625 6.65938 7.90625 6.46876C7.90625 6.27813 7.98198 6.09532 8.11677 5.96052C8.25156 5.82573 8.43438 5.75001 8.625 5.75001H13.6563C13.8469 5.75001 14.0297 5.82573 14.1645 5.96052C14.2993 6.09532 14.375 6.27813 14.375 6.46876Z" fill="currentColor"/>
</svg>
