<svg width="32" height="48" viewBox="0 0 32 48" fill="none" xmlns="http://www.w3.org/2000/svg">
<path d="M0.0103993 13.0257C-0.0630946 11.8564 0.262762 10.6206 0.678177 9.46535C1.86162 6.17459 4.39211 3.66179 7.42628 2.00527C10.6539 0.243113 14.6253 -0.269878 18.2569 0.126265C22.5234 0.59164 26.8658 2.54247 29.2826 6.20889C30.5409 8.11898 31.1702 10.1945 31.1702 12.4365C31.1702 14.2011 30.8113 15.7478 30.0938 17.076C29.3761 18.4047 28.523 19.5515 27.5353 20.5168C26.313 21.7112 25.0249 22.8347 23.7745 23.9988C22.5949 25.0969 21.28 26.0028 20.3314 27.3294C19.712 28.1957 19.2296 29.1601 18.9131 30.1766C18.6009 31.1795 18.5853 32.2731 18.0963 33.2182C17.4523 34.4629 16.2162 35.0114 14.8521 35.0114C13.7704 35.0114 12.8602 34.6587 12.1221 33.9528C11.3835 33.2473 11.0144 32.1989 11.0144 30.8079C11.0144 29.0641 11.2845 27.554 11.8256 26.2773C12.3663 25.0006 13.0839 23.8797 13.9784 22.9145C15.6639 21.0958 17.6121 19.469 19.4439 17.7851C20.2484 17.0456 21.0607 16.2971 21.6722 15.3922C23.207 13.121 22.7186 10.1272 20.7335 8.29516C18.3742 6.11773 14.188 6.24979 11.71 8.14001C9.87787 9.53757 8.83261 11.7334 8.08854 13.8518C7.46703 15.6212 6.05719 16.9203 4.11897 16.9203C2.9538 16.9203 1.97101 16.5107 1.17048 15.6904C0.400267 14.9011 0.0707499 13.9858 0.0103993 13.0257ZM15.1954 47.1553C13.9263 47.1553 12.8187 46.7452 11.8725 45.9253C10.9257 45.1056 10.4528 43.9588 10.4528 42.4846C10.4528 41.1768 10.9101 40.0768 11.8256 39.184C12.7407 38.2917 13.8639 37.845 15.1954 37.845C16.5058 37.845 17.6081 38.2917 18.5027 39.184C19.3968 40.0768 19.8443 41.1768 19.8443 42.4846C19.8443 43.9379 19.3763 45.0798 18.4402 45.9098C17.5042 46.7398 16.4224 47.1553 15.1954 47.1553Z" fill="#F88282"/>
</svg>
