<svg width="19" height="19" viewBox="0 0 19 19" fill="none" xmlns="http://www.w3.org/2000/svg">
<path d="M16.0312 2.96875H2.96875C2.65381 2.96875 2.35176 3.09386 2.12906 3.31656C1.90636 3.53926 1.78125 3.84131 1.78125 4.15625V14.8438C1.78125 15.1587 1.90636 15.4607 2.12906 15.6834C2.35176 15.9061 2.65381 16.0312 2.96875 16.0312H16.0312C16.3462 16.0312 16.6482 15.9061 16.8709 15.6834C17.0936 15.4607 17.2188 15.1587 17.2188 14.8438V4.15625C17.2188 3.84131 17.0936 3.53926 16.8709 3.31656C16.6482 3.09386 16.3462 2.96875 16.0312 2.96875ZM16.0312 14.8438H2.96875V4.15625H16.0312V14.8438ZM13.6562 7.125C13.6562 7.28247 13.5937 7.4335 13.4823 7.54484C13.371 7.65619 13.22 7.71875 13.0625 7.71875H5.9375C5.78003 7.71875 5.62901 7.65619 5.51766 7.54484C5.40631 7.4335 5.34375 7.28247 5.34375 7.125C5.34375 6.96753 5.40631 6.81651 5.51766 6.70516C5.62901 6.59381 5.78003 6.53125 5.9375 6.53125H13.0625C13.22 6.53125 13.371 6.59381 13.4823 6.70516C13.5937 6.81651 13.6562 6.96753 13.6562 7.125ZM13.6562 9.5C13.6562 9.65747 13.5937 9.8085 13.4823 9.91985C13.371 10.0312 13.22 10.0938 13.0625 10.0938H5.9375C5.78003 10.0938 5.62901 10.0312 5.51766 9.91985C5.40631 9.8085 5.34375 9.65747 5.34375 9.5C5.34375 9.34253 5.40631 9.1915 5.51766 9.08016C5.62901 8.96881 5.78003 8.90625 5.9375 8.90625H13.0625C13.22 8.90625 13.371 8.96881 13.4823 9.08016C13.5937 9.1915 13.6562 9.34253 13.6562 9.5ZM13.6562 11.875C13.6562 12.0325 13.5937 12.1835 13.4823 12.2948C13.371 12.4062 13.22 12.4688 13.0625 12.4688H5.9375C5.78003 12.4688 5.62901 12.4062 5.51766 12.2948C5.40631 12.1835 5.34375 12.0325 5.34375 11.875C5.34375 11.7175 5.40631 11.5665 5.51766 11.4552C5.62901 11.3438 5.78003 11.2812 5.9375 11.2812H13.0625C13.22 11.2812 13.371 11.3438 13.4823 11.4552C13.5937 11.5665 13.6562 11.7175 13.6562 11.875Z" fill="currentColor"/>
</svg>
